<svg width="16" height="16" viewBox="0 0 16 16" fill="none" xmlns="http://www.w3.org/2000/svg">
<g clip-path="url(#clip0_4_17340)">
<path d="M9.69052 6.31334L6.31719 9.68668C5.88385 9.25334 5.61719 8.66001 5.61719 8.00001C5.61719 6.68001 6.68385 5.61334 8.00385 5.61334C8.66385 5.61334 9.25719 5.88001 9.69052 6.31334Z" stroke="#171717" stroke-linecap="round" stroke-linejoin="round"/>
<path d="M11.8799 3.84669C10.7132 2.96669 9.3799 2.48669 7.9999 2.48669C5.64656 2.48669 3.45323 3.87336 1.92656 6.27336C1.32656 7.21336 1.32656 8.79336 1.92656 9.73336C2.45323 10.56 3.06656 11.2734 3.73323 11.8467" stroke="#171717" stroke-linecap="round" stroke-linejoin="round"/>
<path d="M5.61719 13.02C6.37719 13.34 7.18385 13.5133 8.00385 13.5133C10.3572 13.5133 12.5505 12.1267 14.0772 9.72668C14.6772 8.78668 14.6772 7.20668 14.0772 6.26668C13.8572 5.92002 13.6172 5.59335 13.3705 5.28668" stroke="#171717" stroke-linecap="round" stroke-linejoin="round"/>
<path d="M10.3409 8.46667C10.1676 9.40668 9.40094 10.1733 8.46094 10.3467" stroke="#171717" stroke-linecap="round" stroke-linejoin="round"/>
<path d="M6.31594 9.68665L1.33594 14.6666" stroke="#171717" stroke-linecap="round" stroke-linejoin="round"/>
<path d="M14.6675 1.33331L9.6875 6.31331" stroke="#171717" stroke-linecap="round" stroke-linejoin="round"/>
</g>
<defs>
<clipPath id="clip0_4_17340">
<rect width="16" height="16" fill="white"/>
</clipPath>
</defs>
</svg>
