<svg width="41" height="51" viewBox="0 0 41 51" fill="none" xmlns="http://www.w3.org/2000/svg">
<g clip-path="url(#clip0_14004_8365)">
<g clip-path="url(#clip1_14004_8365)">
<g clip-path="url(#clip2_14004_8365)">
<path d="M1.93635 35.4842V39.7948C1.9411 40.0336 1.99445 40.2689 2.09316 40.4864C2.19186 40.7039 2.33385 40.899 2.51045 41.0598C2.67103 41.2364 2.8659 41.3785 3.0832 41.4774C3.30049 41.5763 3.53566 41.6299 3.77434 41.6349H37.5684C38.0452 41.6023 38.494 41.3982 38.8318 41.0604C39.1697 40.7225 39.3738 40.2737 39.4064 39.7969V35.4842H1.93635ZM3.77434 14.5095H12.8562C12.6535 14.1374 12.473 13.7536 12.3156 13.3602C12.1476 12.9599 12.0598 12.5305 12.0572 12.0963C12.0457 11.5926 12.1395 11.092 12.3325 10.6266C12.5256 10.1611 12.8137 9.74113 13.1783 9.3934C13.7648 8.80845 14.5288 8.43463 15.3506 8.33054C16.1724 8.22645 17.0054 8.39797 17.7193 8.81822C18.2853 9.13972 18.7658 9.59245 19.1205 10.1383L20.5573 12.2077L21.9942 10.1383C22.3699 9.60828 22.8477 9.15871 23.3997 8.81606C23.9615 8.46977 24.6103 8.29087 25.2701 8.30034C25.7705 8.29186 26.2675 8.38416 26.7315 8.57176C27.1955 8.75936 27.617 9.03841 27.9709 9.39231C28.3248 9.7462 28.6039 10.1677 28.7915 10.6317C28.9791 11.0957 29.0714 11.5927 29.0629 12.0931C29.0572 12.5056 28.9793 12.914 28.8326 13.2997C28.68 13.7194 28.4874 14.1234 28.2574 14.5062H37.5673C37.9771 14.4982 38.3842 14.5729 38.7643 14.726C39.1444 14.879 39.4897 15.1073 39.7795 15.3971C40.0692 15.6868 40.2975 16.0321 40.4506 16.4123C40.6037 16.7924 40.6784 17.1995 40.6703 17.6092V39.7948C40.6784 40.2045 40.6037 40.6116 40.4506 40.9917C40.2975 41.3719 40.0692 41.7172 39.7795 42.0069C39.4897 42.2967 39.1444 42.5249 38.7643 42.678C38.3842 42.8311 37.9771 42.9058 37.5673 42.8977H3.77542C3.36572 42.9058 2.95859 42.8311 2.57847 42.678C2.19835 42.5249 1.85306 42.2967 1.56329 42.0069C1.27353 41.7172 1.04527 41.3719 0.892192 40.9917C0.739117 40.6116 0.664381 40.2045 0.672468 39.7948V17.6103C0.664381 17.2006 0.739117 16.7935 0.892192 16.4133C1.04527 16.0332 1.27353 15.6879 1.56329 15.3982C1.85306 15.1084 2.19835 14.8801 2.57847 14.7271C2.95859 14.574 3.36572 14.4992 3.77542 14.5073L3.77434 14.5095ZM1.93635 31.3487H39.4075V17.6179C39.3749 17.1411 39.1708 16.6923 38.8329 16.3544C38.495 16.0166 38.0462 15.8125 37.5695 15.7799H22.9132L27.626 22.3891L26.653 23.1361L20.5606 14.7452L14.4682 23.1361L13.4951 22.3891L18.2652 15.7799H3.77542C3.53674 15.7849 3.30158 15.8385 3.08428 15.9374C2.86699 16.0363 2.67211 16.1784 2.51154 16.355C2.33487 16.5156 2.19275 16.7105 2.09387 16.9278C1.99498 17.1451 1.94138 17.3802 1.93635 17.6189V31.3487ZM15.8445 14.6219C16.3449 14.6241 16.8346 14.4771 17.2511 14.1999C17.6677 13.9226 17.9922 13.5276 18.1834 13.0651C18.3745 12.6027 18.4236 12.0938 18.3244 11.6033C18.2252 11.1129 17.9821 10.6631 17.6263 10.3113C17.392 10.077 17.1139 9.89121 16.8078 9.76443C16.5017 9.63764 16.1737 9.57239 15.8423 9.57239C15.511 9.57239 15.183 9.63764 14.8769 9.76443C14.5708 9.89121 14.2927 10.077 14.0584 10.3113C13.8242 10.5456 13.6383 10.8237 13.5115 11.1298C13.3847 11.4359 13.3195 11.7639 13.3195 12.0952C13.3195 12.4265 13.3847 12.7546 13.5115 13.0607C13.6383 13.3668 13.8242 13.6449 14.0584 13.8792C14.2886 14.1188 14.5655 14.3087 14.872 14.4372C15.1784 14.5657 15.5079 14.63 15.8402 14.6263L15.8445 14.6219ZM25.2701 14.6219C25.7706 14.6243 26.2605 14.4775 26.6772 14.2003C27.0939 13.9231 27.4186 13.5281 27.6099 13.0656C27.8011 12.6031 27.8503 12.0942 27.7512 11.6036C27.652 11.1131 27.4089 10.6632 27.053 10.3113C26.8187 10.077 26.5406 9.89121 26.2345 9.76443C25.9284 9.63764 25.6004 9.57239 25.2691 9.57239C24.6 9.57239 23.9583 9.83819 23.4851 10.3113C23.2509 10.5456 23.065 10.8237 22.9382 11.1298C22.8115 11.4359 22.7462 11.7639 22.7462 12.0952C22.7462 12.7643 23.012 13.406 23.4851 13.8792C23.7153 14.1188 23.9922 14.3087 24.2987 14.4372C24.6051 14.5657 24.9346 14.63 25.2669 14.6263L25.2701 14.6219Z" fill="#C5445E"/>
</g>
</g>
</g>
<defs>
<clipPath id="clip0_14004_8365">
<rect width="40" height="50" fill="white" transform="translate(0.671875 0.599609)"/>
</clipPath>
<clipPath id="clip1_14004_8365">
<rect width="40" height="50" fill="white" transform="translate(0.671875 0.599609)"/>
</clipPath>
<clipPath id="clip2_14004_8365">
<rect width="40" height="34.5974" fill="white" transform="translate(0.671875 8.30078)"/>
</clipPath>
</defs>
</svg>
