<svg width="41" height="51" viewBox="0 0 41 51" fill="none" xmlns="http://www.w3.org/2000/svg">
<g clip-path="url(#clip0_14004_8381)">
<g clip-path="url(#clip1_14004_8381)">
<g clip-path="url(#clip2_14004_8381)">
<path d="M37.8105 23.163V40.4561C37.818 40.8344 37.749 41.2104 37.6077 41.5614C37.4664 41.9125 37.2556 42.2314 36.988 42.499C36.7204 42.7665 36.4015 42.9773 36.0505 43.1187C35.6994 43.26 35.3234 43.329 34.9451 43.3214H5.17935C4.80099 43.329 4.42501 43.26 4.07397 43.1187C3.72292 42.9773 3.40403 42.7665 3.13644 42.499C2.86885 42.2314 2.65807 41.9125 2.51674 41.5614C2.37541 41.2104 2.30644 40.8344 2.31397 40.4561V23.0523C1.39247 22.4243 0.702866 21.511 0.351301 20.4527C-0.00251697 19.3847 -0.00251697 18.2311 0.351301 17.1631L2.36714 10.4776C2.58117 9.69455 3.04855 9.00438 3.69626 8.51497C4.35274 8.07436 5.13125 7.85154 5.92144 7.8781H34.0435C34.8471 7.85613 35.6398 8.06815 36.3252 8.48839C36.9873 8.92853 37.4613 9.60001 37.6543 10.3713L39.8296 17.1631C40.1837 18.2508 40.1743 19.424 39.803 20.5059C39.446 21.5856 38.7459 22.5191 37.8093 23.1641L37.8105 23.163ZM24.7585 22.8972C25.3863 22.9435 26.017 22.8591 26.6107 22.6494C27.2043 22.4397 27.748 22.1092 28.2075 21.6788C28.556 21.3688 28.8282 20.9825 29.003 20.5501C29.1778 20.1176 29.2505 19.6507 29.2155 19.1856L27.6759 9.04552H20.6725V18.5432C20.6594 19.6764 21.0876 20.7703 21.8665 21.5936C22.2258 22.0066 22.6704 22.3368 23.1697 22.5613C23.669 22.7858 24.211 22.8993 24.7585 22.8939V22.8972ZM15.1013 22.8972C15.6787 22.9105 16.2529 22.8074 16.7897 22.5941C17.3265 22.3808 17.8149 22.0617 18.2258 21.6558C18.6367 21.2499 18.9617 20.7654 19.1815 20.2312C19.4013 19.697 19.5113 19.1241 19.5051 18.5465V9.04552H12.4485L10.909 19.3972C10.9171 19.8176 11.0107 20.2319 11.184 20.615C11.3572 20.9981 11.6066 21.342 11.9169 21.6257C12.3201 22.0604 12.8148 22.4002 13.3653 22.6205C13.9158 22.8408 14.5083 22.9361 15.1002 22.8994L15.1013 22.8972ZM5.60356 22.8972C6.63035 22.9108 7.62131 22.5202 8.3626 21.8095C9.12786 21.1099 9.61741 20.1595 9.74267 19.1302L11.1748 9.05106H5.76305C5.2471 9.02688 4.73665 9.16602 4.30434 9.44869C3.91386 9.74242 3.64092 10.1658 3.53455 10.6427L1.51872 17.4345C1.30643 18.049 1.24153 18.7047 1.32926 19.3488C1.417 19.993 1.6549 20.6075 2.02378 21.1428C2.4131 21.7249 2.9496 22.1936 3.57875 22.5011C4.2079 22.8087 4.90727 22.9442 5.60577 22.8939L5.60356 22.8972ZM34.5209 22.8972C35.1773 22.9088 35.8275 22.769 36.4211 22.4885C37.0146 22.2081 37.5356 21.7946 37.9434 21.2801C38.3859 20.7558 38.6808 20.123 38.7976 19.4469C38.9144 18.7708 38.8489 18.0758 38.6079 17.4334L36.5367 10.5364C36.4394 10.07 36.163 9.66037 35.7669 9.39552C35.3221 9.14742 34.817 9.02814 34.3082 9.05106H28.9496L30.3818 19.1302C30.5394 20.1548 31.0339 21.0975 31.7873 21.8095C32.1483 22.1624 32.5757 22.4402 33.0447 22.6269C33.5137 22.8136 34.015 22.9054 34.5198 22.8972H34.5209ZM5.17935 42.154H34.9451C35.1657 42.1569 35.3848 42.1162 35.5897 42.0343C35.7945 41.9524 35.9813 41.8308 36.1391 41.6766C36.3045 41.5207 36.4349 41.3315 36.5218 41.1215C36.6086 40.9115 36.65 40.6854 36.643 40.4583V23.7423C36.3255 23.8571 35.9965 23.9373 35.6617 23.9816C35.2838 24.0351 34.9026 24.0618 34.5209 24.0613C33.6514 24.0735 32.7932 23.8635 32.0277 23.451C31.1924 22.961 30.4694 22.301 29.9055 21.5138C29.3711 22.2603 28.6839 22.8844 27.8897 23.3447C26.9287 23.8579 25.8481 24.1053 24.7596 24.0613C23.9327 24.0671 23.1187 23.8567 22.3982 23.451C21.5497 22.9476 20.7733 22.3317 20.0899 21.6201C19.4091 22.3881 18.5803 23.0108 17.6532 23.451C16.876 23.8322 16.0254 24.0405 15.16 24.0613C14.2693 24.06 13.387 23.889 12.5604 23.5573C11.625 23.1425 10.858 22.4224 10.3851 21.5149C9.54419 22.4232 8.52299 23.146 7.3868 23.6371C6.81898 23.8612 6.22237 24.004 5.61463 24.0613C5.24175 24.0624 4.86931 24.0358 4.50038 23.9816C4.15814 23.931 3.8209 23.851 3.49246 23.7423V40.4561C3.48554 40.6832 3.52688 40.9093 3.61375 41.1193C3.70062 41.3293 3.83105 41.5185 3.99642 41.6744C4.15428 41.8286 4.341 41.9501 4.54588 42.032C4.75076 42.1139 4.96979 42.1546 5.19042 42.1518L5.17935 42.154Z" fill="#C5445E"/>
</g>
</g>
</g>
<defs>
<clipPath id="clip0_14004_8381">
<rect width="40" height="50" fill="white" transform="translate(0.0859375 0.599609)"/>
</clipPath>
<clipPath id="clip1_14004_8381">
<rect width="40" height="50" fill="white" transform="translate(0.0859375 0.599609)"/>
</clipPath>
<clipPath id="clip2_14004_8381">
<rect width="40" height="35.4433" fill="white" transform="translate(0.0859375 7.87793)"/>
</clipPath>
</defs>
</svg>
