<svg width="41" height="51" viewBox="0 0 41 51" fill="none" xmlns="http://www.w3.org/2000/svg">
<g clip-path="url(#clip0_14004_8373)">
<g clip-path="url(#clip1_14004_8373)">
<g clip-path="url(#clip2_14004_8373)">
<path d="M20.7274 45.5994C18.0152 45.624 15.3265 45.0962 12.8249 44.0482C10.4606 43.0689 8.31236 41.6335 6.50283 39.824C4.6933 38.0145 3.25791 35.8662 2.27863 33.502C1.23063 31.0004 0.702831 28.3116 0.727381 25.5995C0.702831 22.8873 1.23063 20.1986 2.27863 17.697C3.25791 15.3327 4.6933 13.1844 6.50283 11.3749C8.31236 9.56537 10.4606 8.12998 12.8249 7.1507C15.3265 6.1027 18.0152 5.5749 20.7274 5.59945C23.4395 5.5749 26.1283 6.1027 28.6299 7.1507C30.9942 8.12998 33.1424 9.56537 34.9519 11.3749C36.7615 13.1844 38.1969 15.3327 39.1761 17.697C40.2241 20.1986 40.7519 22.8873 40.7274 25.5995V27.4382C40.7502 28.2919 40.596 29.1411 40.2746 29.9323C39.9532 30.7236 39.4715 31.4397 38.8599 32.0357C38.2531 32.6386 37.5304 33.1124 36.7356 33.4284C35.9407 33.7444 35.09 33.8962 34.2349 33.8745C32.8427 33.9298 31.4741 33.5034 30.3599 32.667C29.3097 31.8092 28.5558 30.643 28.2049 29.3332C27.4683 30.5951 26.5006 31.707 25.3524 32.6107C23.9929 33.5318 22.3664 33.9762 20.7274 33.8745C19.6393 33.8791 18.5611 33.6682 17.555 33.254C16.5489 32.8398 15.6347 32.2305 14.8653 31.4612C14.0959 30.6919 13.4864 29.7778 13.0721 28.7717C12.6577 27.7657 12.4467 26.6875 12.4511 25.5995C12.4401 24.5095 12.6466 23.4284 13.0587 22.4193C13.4707 21.4102 14.0799 20.4934 14.8506 19.7227C15.6213 18.9519 16.5381 18.3427 17.5472 17.9307C18.5563 17.5187 19.6375 17.3122 20.7274 17.3232C21.8173 17.3122 22.8985 17.5187 23.9076 17.9307C24.9167 18.3427 25.8334 18.9519 26.6042 19.7227C27.3749 20.4934 27.9841 21.4102 28.3961 22.4193C28.8081 23.4284 29.0147 24.5095 29.0036 25.5995V27.4382C28.9946 28.1183 29.1251 28.7931 29.3869 29.4209C29.6488 30.0486 30.0365 30.6161 30.5261 31.0882C31.5131 32.064 32.8451 32.6113 34.233 32.6113C35.6209 32.6113 36.9529 32.064 37.9399 31.0882C38.4295 30.6161 38.8172 30.0486 39.0791 29.4209C39.3409 28.7931 39.4714 28.1183 39.4624 27.4382V25.5995C39.4945 23.1361 39.0214 20.6922 38.0725 18.4187C37.1235 16.1452 35.7188 14.0903 33.9449 12.3807C32.2354 10.607 30.1807 9.20232 27.9074 8.25337C25.6342 7.30442 23.1906 6.8313 20.7274 6.8632C18.264 6.83113 15.8202 7.30417 13.5467 8.25312C11.2732 9.20208 9.21822 10.6068 7.50863 12.3807C5.73476 14.0903 4.33001 16.1452 3.38105 18.4187C2.43209 20.6922 1.95906 23.1361 1.99113 25.5995C1.95906 28.0628 2.43209 30.5067 3.38105 32.7802C4.33001 35.0537 5.73476 37.1086 7.50863 38.8182C9.21822 40.5921 11.2732 41.9968 13.5467 42.9458C15.8202 43.8947 18.264 44.3678 20.7274 44.3357H32.4511V45.5994H20.7274ZM20.7274 32.6107C21.6498 32.6167 22.5642 32.4394 23.4175 32.0892C24.2709 31.7389 25.0462 31.2227 25.6984 30.5705C26.3507 29.9182 26.8669 29.1429 27.2171 28.2896C27.5673 27.4363 27.7446 26.5219 27.7386 25.5995C27.7446 24.6771 27.5673 23.7626 27.2171 22.9093C26.8669 22.056 26.3507 21.2807 25.6984 20.6284C25.0462 19.9762 24.2709 19.46 23.4175 19.1097C22.5642 18.7595 21.6498 18.5822 20.7274 18.5882C19.805 18.5822 18.8906 18.7595 18.0372 19.1097C17.1839 19.46 16.4086 19.9762 15.7564 20.6284C15.1041 21.2807 14.5879 22.056 14.2377 22.9093C13.8874 23.7626 13.7102 24.6771 13.7161 25.5995C13.7102 26.5219 13.8874 27.4363 14.2377 28.2896C14.5879 29.1429 15.1041 29.9182 15.7564 30.5705C16.4086 31.2227 17.1839 31.7389 18.0372 32.0892C18.8906 32.4394 19.805 32.6167 20.7274 32.6107Z" fill="#C5445E"/>
</g>
</g>
</g>
<defs>
<clipPath id="clip0_14004_8373">
<rect width="40" height="50" fill="white" transform="translate(0.726562 0.599609)"/>
</clipPath>
<clipPath id="clip1_14004_8373">
<rect width="40" height="50" fill="white" transform="translate(0.726562 0.599609)"/>
</clipPath>
<clipPath id="clip2_14004_8373">
<rect width="40" height="40" fill="white" transform="translate(0.726562 5.59961)"/>
</clipPath>
</defs>
</svg>
