<svg width="21" height="20" viewBox="0 0 21 20" fill="none" xmlns="http://www.w3.org/2000/svg">
<g clip-path="url(#clip0_16004_3607)">
<path d="M3.33594 2.92969C2.88021 3.38542 2.47005 3.88021 2.10547 4.41406C1.75391 4.94792 1.45117 5.51432 1.19727 6.11328C0.943359 6.71224 0.744792 7.33724 0.601562 7.98828C0.471354 8.63932 0.40625 9.3099 0.40625 10C0.40625 11.3802 0.666667 12.6758 1.1875 13.8867C1.70833 15.1107 2.42122 16.1751 3.32617 17.0801C4.23112 17.985 5.29557 18.6979 6.51953 19.2188C7.73047 19.7396 9.02604 20 10.4062 20C11.7865 20 13.082 19.7396 14.293 19.2188C15.5169 18.6979 16.5814 17.985 17.4863 17.0801C18.3913 16.1751 19.1042 15.1107 19.625 13.8867C20.1458 12.6758 20.4062 11.3802 20.4062 10C20.4062 9.3099 20.3411 8.63932 20.2109 7.98828C20.0677 7.33724 19.8691 6.71224 19.6152 6.11328C19.3613 5.51432 19.0586 4.94792 18.707 4.41406C18.3424 3.88021 17.9323 3.38542 17.4766 2.92969C17.0208 2.47396 16.526 2.0638 15.9922 1.69922C15.4583 1.34766 14.8919 1.04492 14.293 0.791016C13.694 0.537109 13.069 0.338541 12.418 0.195312C11.7669 0.0651035 11.0964 0 10.4062 0C9.71615 0 9.04557 0.0651035 8.39453 0.195312C7.74349 0.338541 7.11849 0.537109 6.51953 0.791016C5.92057 1.04492 5.35417 1.34766 4.82031 1.69922C4.28646 2.0638 3.79167 2.47396 3.33594 2.92969ZM15.0742 5.99609V11.6602C15.0742 11.6602 15.0742 11.6634 15.0742 11.6699C15.0742 11.6764 15.0742 11.6797 15.0742 11.6797C15.0742 11.862 15.0091 12.0182 14.8789 12.1484C14.7487 12.2786 14.5924 12.3438 14.4102 12.3438C14.2279 12.3438 14.0716 12.2786 13.9414 12.1484C13.8112 12.0182 13.7461 11.862 13.7461 11.6797C13.7461 11.6797 13.7461 11.6764 13.7461 11.6699C13.7461 11.6634 13.7461 11.6602 13.7461 11.6602V7.61719L6.40234 14.9609C6.33724 15.026 6.26237 15.0749 6.17773 15.1074C6.0931 15.14 6.00521 15.1562 5.91406 15.1562C5.73177 15.1562 5.57552 15.0911 5.44531 14.9609C5.3151 14.8307 5.25 14.6745 5.25 14.4922C5.25 14.401 5.26628 14.3132 5.29883 14.2285C5.33138 14.1439 5.38021 14.069 5.44531 14.0039L12.7891 6.66016H8.74609C8.5638 6.66016 8.41081 6.59505 8.28711 6.46484C8.16341 6.33464 8.10156 6.17839 8.10156 5.99609C8.10156 5.8138 8.16341 5.66081 8.28711 5.53711C8.41081 5.41341 8.5638 5.34505 8.74609 5.33203H14.4102C14.5924 5.33203 14.7487 5.39714 14.8789 5.52734C15.0091 5.65755 15.0742 5.8138 15.0742 5.99609Z" fill="#4071D9"/>
</g>
<defs>
<clipPath id="clip0_16004_3607">
<rect width="20" height="20" fill="white" transform="matrix(1 0 0 -1 0.40625 20)"/>
</clipPath>
</defs>
</svg>
