<svg width="11" height="6" viewBox="0 0 11 6" fill="none" xmlns="http://www.w3.org/2000/svg">
<g clip-path="url(#clip0_14005_11151)">
<path d="M5.11523 6C5.11133 6 5.10742 6 5.10352 6C5.09961 6 5.0957 6 5.0918 6C4.95898 6 4.83398 5.97266 4.7168 5.91797C4.59961 5.86328 4.5 5.79102 4.41797 5.70117L0.416016 1.69922C0.326172 1.61328 0.253906 1.50977 0.199219 1.38867C0.144531 1.26758 0.117188 1.13867 0.117188 1.00195C0.117188 0.861328 0.144531 0.731445 0.199219 0.612305C0.253906 0.493164 0.326172 0.388672 0.416016 0.298828C0.505859 0.208984 0.610352 0.136719 0.729492 0.0820312C0.848633 0.0273438 0.978516 0 1.11914 0C1.25586 0 1.38477 0.0273438 1.50586 0.0820312C1.62695 0.136719 1.73047 0.208984 1.81641 0.298828L5.11523 3.59766L8.41992 0.298828C8.50586 0.208984 8.60938 0.136719 8.73047 0.0820312C8.85156 0.0273438 8.98047 0 9.11719 0C9.25391 0 9.38281 0.0273438 9.50391 0.0820312C9.625 0.136719 9.72852 0.208984 9.81445 0.298828C9.9082 0.388672 9.98242 0.493164 10.0371 0.612305C10.0918 0.731445 10.1191 0.861328 10.1191 1.00195C10.1191 1.13867 10.0918 1.26758 10.0371 1.38867C9.98242 1.50977 9.91016 1.61328 9.82031 1.69922H9.81445L5.81836 5.70117C5.73242 5.79102 5.63184 5.86328 5.5166 5.91797C5.40137 5.97266 5.27734 6 5.14453 6C5.14062 6 5.13574 6 5.12988 6C5.12402 6 5.11914 6 5.11523 6Z" fill="#3A1A5F"/>
</g>
<defs>
<clipPath id="clip0_14005_11151">
<rect width="10.02" height="6" fill="white" transform="matrix(1 0 0 -1 0.109375 6)"/>
</clipPath>
</defs>
</svg>
