<svg width="11" height="7" viewBox="0 0 11 7" fill="none" xmlns="http://www.w3.org/2000/svg">
<g clip-path="url(#clip0_14005_10489)">
<path d="M5.00586 6.83008C5.00195 6.83008 4.99805 6.83008 4.99414 6.83008C4.99023 6.83008 4.98633 6.83008 4.98242 6.83008C4.84961 6.83008 4.72461 6.80273 4.60742 6.74805C4.49023 6.69336 4.39062 6.62109 4.30859 6.53125L0.306641 2.5293C0.216797 2.44336 0.144531 2.33984 0.0898438 2.21875C0.0351563 2.09766 0.0078125 1.96875 0.0078125 1.83203C0.0078125 1.69141 0.0351563 1.56152 0.0898438 1.44238C0.144531 1.32324 0.216797 1.21875 0.306641 1.12891C0.396484 1.03906 0.500977 0.966797 0.620117 0.912109C0.739258 0.857422 0.869141 0.830078 1.00977 0.830078C1.14648 0.830078 1.27539 0.857422 1.39648 0.912109C1.51758 0.966797 1.62109 1.03906 1.70703 1.12891L5.00586 4.42773L8.31055 1.12891C8.39648 1.03906 8.5 0.966797 8.62109 0.912109C8.74219 0.857422 8.87109 0.830078 9.00781 0.830078C9.14453 0.830078 9.27344 0.857422 9.39453 0.912109C9.51562 0.966797 9.61914 1.03906 9.70508 1.12891C9.79883 1.21875 9.87305 1.32324 9.92773 1.44238C9.98242 1.56152 10.0098 1.69141 10.0098 1.83203C10.0098 1.96875 9.98242 2.09766 9.92773 2.21875C9.87305 2.33984 9.80078 2.44336 9.71094 2.5293H9.70508L5.70898 6.53125C5.62305 6.62109 5.52246 6.69336 5.40723 6.74805C5.29199 6.80273 5.16797 6.83008 5.03516 6.83008C5.03125 6.83008 5.02637 6.83008 5.02051 6.83008C5.01465 6.83008 5.00977 6.83008 5.00586 6.83008Z" fill="#808080"/>
</g>
<defs>
<clipPath id="clip0_14005_10489">
<rect width="10.02" height="6" fill="white" transform="matrix(1 0 0 -1 0 6.83008)"/>
</clipPath>
</defs>
</svg>
