<svg width="11" height="7" viewBox="0 0 11 7" fill="none" xmlns="http://www.w3.org/2000/svg">
<g clip-path="url(#clip0_16001_349)">
<path d="M5.47743 6.5C5.47353 6.5 5.46963 6.5 5.46573 6.5C5.46182 6.5 5.45792 6.5 5.45402 6.5C5.32134 6.5 5.19646 6.47266 5.07939 6.41797C4.96232 6.36328 4.86281 6.29102 4.78086 6.20117L0.782905 2.19922C0.693151 2.11328 0.620957 2.00977 0.566324 1.88867C0.511691 1.76758 0.484375 1.63867 0.484375 1.50195C0.484375 1.36133 0.511691 1.23145 0.566324 1.1123C0.620957 0.993164 0.693151 0.888672 0.782905 0.798828C0.872659 0.708984 0.977047 0.636719 1.09607 0.582031C1.21509 0.527344 1.34484 0.5 1.48533 0.5C1.62191 0.5 1.75069 0.527344 1.87166 0.582031C1.99263 0.636719 2.09605 0.708984 2.1819 0.798828L5.47743 4.09766L8.77882 0.798828C8.86467 0.708984 8.96809 0.636719 9.08906 0.582031C9.21003 0.527344 9.33881 0.5 9.47539 0.5C9.61197 0.5 9.74075 0.527344 9.86173 0.582031C9.9827 0.636719 10.0861 0.708984 10.172 0.798828C10.2656 0.888672 10.3398 0.993164 10.3944 1.1123C10.449 1.23145 10.4763 1.36133 10.4763 1.50195C10.4763 1.63867 10.449 1.76758 10.3944 1.88867C10.3398 2.00977 10.2676 2.11328 10.1778 2.19922H10.172L6.17986 6.20117C6.09401 6.29102 5.99352 6.36328 5.8784 6.41797C5.76328 6.47266 5.63938 6.5 5.5067 6.5C5.5028 6.5 5.49792 6.5 5.49207 6.5C5.48621 6.5 5.48134 6.5 5.47743 6.5Z" fill="#808080"/>
</g>
<defs>
<clipPath id="clip0_16001_349">
<rect width="10.01" height="6" fill="white" transform="matrix(1 0 0 -1 0.476562 6.5)"/>
</clipPath>
</defs>
</svg>
