<svg width="27" height="27" viewBox="0 0 27 27" fill="none" xmlns="http://www.w3.org/2000/svg">
<g clip-path="url(#clip0_14004_8398)">
<g clip-path="url(#clip1_14004_8398)">
<path d="M12.184 3.93172C12.7571 2.77732 14.4044 2.77732 14.9775 3.93172L16.9015 7.80052C17.0133 8.0258 17.1778 8.22071 17.3812 8.36866C17.5845 8.51661 17.8207 8.6132 18.0694 8.6502L22.3438 9.28356C23.6188 9.4718 24.1284 11.038 23.207 11.9408L20.1213 14.9651C19.9415 15.141 19.807 15.3579 19.7291 15.5971C19.6512 15.8363 19.6324 16.0908 19.6741 16.3389L20.3938 20.5998C20.608 21.8717 19.2758 22.8389 18.1339 22.243L14.3025 20.242C14.0796 20.1256 13.8318 20.0648 13.5802 20.0648C13.3287 20.0648 13.0809 20.1256 12.858 20.242L9.02868 22.242C7.88468 22.8379 6.55348 21.8707 6.76772 20.5988L7.48636 16.3379C7.52807 16.09 7.50929 15.8358 7.43161 15.5968C7.35393 15.3577 7.21965 15.141 7.0402 14.9651L3.95452 11.9387C3.03308 11.037 3.54268 9.47076 4.81772 9.28252L9.09212 8.64916C9.34095 8.61242 9.5772 8.51606 9.78074 8.36829C9.98429 8.22052 10.1491 8.02573 10.2611 7.80052L12.184 3.93172Z" fill="#FCD503"/>
</g>
</g>
<defs>
<clipPath id="clip0_14004_8398">
<rect width="26" height="26" fill="white" transform="translate(0.578125 0.599609)"/>
</clipPath>
<clipPath id="clip1_14004_8398">
<rect width="26" height="26" fill="white" transform="translate(0.578125 0.599609)"/>
</clipPath>
</defs>
</svg>
