<svg width="27" height="39" viewBox="0 0 27 39" fill="none" xmlns="http://www.w3.org/2000/svg">
<path fill-rule="evenodd" clip-rule="evenodd" d="M4.27374 0.964059C3.24048 1.17227 2.27443 1.6742 1.47519 2.41794C0.44703 3.37484 0.00180509 4.34239 4.99067e-06 5.62392C-0.00494528 8.9172 3.67311 11.3583 9.45293 11.898C11.1317 12.0548 11.8244 12.0198 10.7019 11.835C9.62529 11.6577 7.50852 11.0181 6.56392 10.5845C4.49275 9.63409 3.29869 8.15816 3.29869 6.54857C3.29869 5.326 3.81292 4.4636 4.86088 3.92882C5.99974 3.34754 8.81194 3.68251 10.1241 4.55556C11.7218 5.61881 12.9468 7.50997 13.5906 9.9068L13.9475 11.2357L13.8581 10.0357C13.4993 5.22549 11.0424 1.70855 7.52907 0.975908C6.63187 0.788848 5.16929 0.783449 4.27374 0.964059ZM20.4746 3.19108C19.013 3.57315 17.6888 4.81717 17.0528 6.40606C16.6778 7.34301 16.3058 8.98635 16.1361 10.456C16.0395 11.2933 16.2656 11.2896 16.4025 10.4515C16.5296 9.67474 17.3113 8.07415 17.9357 7.31196C18.2302 6.95254 18.8064 6.50792 19.274 6.27915C19.9859 5.93083 20.2402 5.88493 21.1849 5.93353C22.5142 6.00179 23.3077 6.37561 23.8983 7.21146C24.6575 8.28596 24.5711 9.39933 23.6607 10.2751C23.1418 10.7743 21.6405 11.419 20.4232 11.6657C19.0848 11.9367 18.9246 12.0404 19.9838 11.9496C22.0247 11.775 23.8974 11.1676 25.0083 10.3202C25.2814 10.1122 25.7054 9.59164 25.9508 9.16366C27.0971 7.1651 26.0541 4.50471 23.7181 3.46905C22.9696 3.13723 21.246 2.98947 20.4746 3.19108ZM1.68505 23.4818L1.7236 33.2439L3.22368 34.0508C4.04873 34.4947 4.77492 34.8587 4.83732 34.8599C4.89973 34.8611 4.93348 30.3646 4.91233 24.868L4.87378 14.8739L3.26014 14.2968L1.6465 13.7196L1.68505 23.4818ZM25.1249 14.286L23.6248 14.8431L23.5863 24.3275C23.565 29.5439 23.5987 33.813 23.6613 33.8144C23.7237 33.8157 24.5004 33.5652 25.3874 33.2577L27 32.6986V23.2047C27 15.7048 26.9605 13.7128 26.8125 13.7199C26.7094 13.7248 25.9499 13.9797 25.1249 14.286ZM20.5496 15.6487C19.9309 15.7921 19.2389 15.956 19.0121 16.013L18.5995 16.1167V26.0144C18.5995 31.4582 18.646 35.9121 18.7027 35.9121C18.7596 35.9121 19.5021 35.6667 20.3528 35.3667L21.8997 34.8211V25.0911C21.8997 19.7395 21.8492 15.3671 21.7872 15.3746C21.7253 15.3821 21.1684 15.5054 20.5496 15.6487ZM7.49892 25.8603V36.2096L9.14901 37.0372L10.7991 37.8647V27.2334V16.602L9.25222 16.0564C8.40152 15.7564 7.65898 15.511 7.60213 15.511C7.54542 15.511 7.49892 20.1681 7.49892 25.8603ZM14.5493 16.9173L13.1242 17.2379L13.0854 27.5875C13.0641 33.2799 13.0777 38.0187 13.1157 38.1181C13.1646 38.2461 13.6593 38.13 14.8046 37.7218L16.4244 37.1444L16.463 26.8528C16.4994 17.1153 16.4873 16.5619 16.238 16.5789C16.093 16.5888 15.3331 16.741 14.5493 16.9173Z" fill="black"/>
</svg>
